<?xml version="1.0" encoding="UTF-8" standalone="no"?>
<!-- Created with Inkscape (http://www.inkscape.org/) -->

<svg
   width="28"
   height="28"
   viewBox="0 0 7.4083332 7.4083332"
   version="1.1"
   id="svg1"
   xml:space="preserve"
   xmlns:xlink="http://www.w3.org/1999/xlink"
   xmlns="http://www.w3.org/2000/svg"
   xmlns:svg="http://www.w3.org/2000/svg"><defs
     id="defs1"><linearGradient
       xlink:href="#linearGradient32"
       id="linearGradient19"
       gradientUnits="userSpaceOnUse"
       gradientTransform="scale(1.0370369)"
       x1="1.7859378"
       y1="6.6652098"
       x2="5.3578129"
       y2="0.47854009" /><linearGradient
       id="linearGradient32"><stop
         style="stop-color:#00c79d;stop-opacity:1;"
         offset="0"
         id="stop31" /><stop
         style="stop-color:#005eff;stop-opacity:1;"
         offset="1"
         id="stop32" /></linearGradient></defs><g
     id="layer1"><rect
       style="fill:url(#linearGradient19);fill-opacity:0.950108;stroke:none;stroke-width:0.439775;stroke-opacity:1"
       id="rect6-8"
       width="7.4083333"
       height="7.4083333"
       x="-5.0772094e-08"
       y="-5.0772094e-08"
       rx="0.99358821"
       ry="0.97970581" /><path
       fill="currentColor"
       d="M 2.8813163,5.8010793 C 2.612756,5.5548745 2.5343644,5.0377256 2.6461393,4.6627552 c 0.1937455,0.2363684 0.4626032,0.3111835 0.7409995,0.3535094 0.4292188,0.064979 0.8512838,0.040836 1.2503976,-0.156188 0.045603,-0.022653 0.087928,-0.052758 0.1377072,-0.082863 0.037559,0.1087951 0.047394,0.2187824 0.034281,0.3308561 C 4.7776319,5.3808025 4.6426059,5.591537 4.4271032,5.7513016 4.3409552,5.815386 4.2500499,5.8723176 4.1612252,5.9325274 3.8881949,6.1179261 3.8142735,6.3349201 3.9168094,6.6508728 l 0.010139,0.03398 A 0.71536467,0.71536467 0 0 1 3.6080106,6.4112257 0.77497838,0.77497838 0 0 1 3.4852057,5.9936316 C 3.4843123,5.9197102 3.4843123,5.8454915 3.4745034,5.7730608 3.4503613,5.5957099 3.3671987,5.5167218 3.2113089,5.5119527 A 0.30820294,0.30820294 0 0 0 2.8908852,5.7632246 q -0.00383,0.017288 -0.0098,0.037557 M 1.349308,4.6004589 c 0,0 0.7946508,-0.3883835 1.5916866,-0.3883835 L 3.5419009,2.346166 c 0.022351,-0.090612 0.088232,-0.152015 0.1621501,-0.152015 0.074522,0 0.140092,0.061402 0.1624475,0.152015 l 0.6009051,1.8659094 c 0.9439838,0 1.5916869,0.3883835 1.5916869,0.3883835 L 4.7063894,0.90291765 C 4.6676358,0.79382405 4.6020701,0.72348045 4.5141355,0.72348045 H 2.894133 c -0.088232,0 -0.1508224,0.070345 -0.192255,0.1794372 -0.00293,0.00715 -1.3526353,3.69754125 -1.3526353,3.69754125"
       id="path1"
       style="fill:#f9f9f9;stroke-width:0.298068" /></g></svg>
