<?xml version="1.0" encoding="UTF-8" standalone="no"?>
<!-- Created with Inkscape (http://www.inkscape.org/) -->

<svg
   width="28"
   height="28"
   viewBox="0 0 7.4083332 7.4083332"
   version="1.1"
   id="svg1"
   xml:space="preserve"
   xmlns:xlink="http://www.w3.org/1999/xlink"
   xmlns="http://www.w3.org/2000/svg"
   xmlns:svg="http://www.w3.org/2000/svg"><defs
     id="defs1"><linearGradient
       xlink:href="#linearGradient32"
       id="linearGradient19"
       gradientUnits="userSpaceOnUse"
       gradientTransform="scale(1.0370369)"
       x1="1.7859378"
       y1="6.6652098"
       x2="5.3578129"
       y2="0.47854009" /><linearGradient
       id="linearGradient32"><stop
         style="stop-color:#00c79d;stop-opacity:1;"
         offset="0"
         id="stop31" /><stop
         style="stop-color:#005eff;stop-opacity:1;"
         offset="1"
         id="stop32" /></linearGradient></defs><g
     id="layer1"><rect
       style="fill:url(#linearGradient19);fill-opacity:0.950108;stroke:none;stroke-width:0.439775;stroke-opacity:1"
       id="rect6-8"
       width="7.4083333"
       height="7.4083333"
       x="-5.0772094e-08"
       y="-5.0772094e-08"
       rx="0.99358821"
       ry="0.97970581" /><path
       fill="currentColor"
       fill-rule="evenodd"
       d="m 6.3499696,4.5103516 a 0.26458333,0.26458333 0 0 1 -0.0021,0.029633 l -0.0016,0.00979 -0.0042,0.01905 q -0.0013,0.00582 -0.0034,0.011112 l -0.0058,0.016669 -0.0053,0.011113 q -0.0034,0.00794 -0.0074,0.015081 l -0.0066,0.010583 a 0.26458333,0.26458333 0 0 1 -0.02858,0.035719 l -0.0093,0.009 -0.01297,0.010583 -0.01005,0.00794 -0.004,0.00265 -2.418292,1.6126354 a 0.22754166,0.22754166 0 0 1 -0.252412,0 l -2.418292,-1.6123708 -0.0037,-0.00265 a 0.26458333,0.26458333 0 0 1 -0.02328,-0.018785 q -0.0048,-0.00423 -0.009,-0.009 -0.0061,-0.00582 -0.01138,-0.012171 a 0.26458333,0.26458333 0 0 1 -0.01746,-0.023813 0.26458333,0.26458333 0 0 1 -0.01429,-0.0254 l -0.005,-0.011113 -0.0058,-0.016669 q -0.0021,-0.00529 -0.0034,-0.011112 -0.0024,-0.00926 -0.004,-0.01905 l -0.0019,-0.00979 a 0.26458333,0.26458333 0 0 1 -0.0021,-0.029633 V 2.8979808 q 0,-0.015081 0.0021,-0.029633 l 0.0019,-0.00979 q 0.0013,-0.00979 0.004,-0.01905 l 0.0034,-0.011113 a 0.21166666,0.21166666 0 0 1 0.03466,-0.067204 l 0.0079,-0.00979 0.01138,-0.012171 0.009,-0.009 a 0.26458333,0.26458333 0 0 1 0.02328,-0.018521 l 0.0037,-0.00265 2.418292,-1.6126353 a 0.22754166,0.22754166 0 0 1 0.252413,0 l 2.418291,1.6123708 0.004,0.00265 0.01005,0.00794 0.01323,0.010848 0.009,0.009 a 0.18520833,0.18520833 0 0 1 0.02858,0.035983 l 0.0066,0.010583 0.0077,0.014817 0.005,0.011112 0.0058,0.016669 q 0.0021,0.00529 0.0034,0.011113 0.0027,0.00926 0.0042,0.01905 l 0.0016,0.00979 a 0.26458333,0.26458333 0 0 1 0.0021,0.029633 z M 1.5131216,3.3236954 v 0.7609417 l 0.568854,-0.3804709 z m 1.963737,-0.55245 V 1.7105309 L 1.6951546,2.89851 2.4910216,3.4305871 Z m 2.236259,0.127 -1.78144,-1.1877145 v 1.0607145 l 0.985838,0.6593417 z m -4.017963,1.6118417 1.781704,1.1877145 V 4.6370871 L 2.4910216,3.9777454 Z m 2.236523,0.127 V 5.6978016 L 5.7131176,4.5098225 4.9175156,3.97801 Z m -0.227542,-1.4710833 -0.804333,0.5381624 0.804333,0.5378979 0.804334,-0.5378979 z m 2.191015,0.9186333 V 3.3236954 l -0.568854,0.3804708 z"
       id="path1"
       style="fill:#f9f9f9;stroke:#f9f9f9;stroke-width:3e-08;stroke-dasharray:none" /></g></svg>
