<?xml version="1.0" encoding="UTF-8" standalone="no"?>
<!-- Created with Inkscape (http://www.inkscape.org/) -->

<svg
   width="28"
   height="28"
   viewBox="0 0 7.4083332 7.4083332"
   version="1.1"
   id="svg1"
   xml:space="preserve"
   xmlns:xlink="http://www.w3.org/1999/xlink"
   xmlns="http://www.w3.org/2000/svg"
   xmlns:svg="http://www.w3.org/2000/svg"><defs
     id="defs1"><linearGradient
       xlink:href="#linearGradient32"
       id="linearGradient19"
       gradientUnits="userSpaceOnUse"
       gradientTransform="scale(1.0370369)"
       x1="1.7859378"
       y1="6.6652098"
       x2="5.3578129"
       y2="0.47854009" /><linearGradient
       id="linearGradient32"><stop
         style="stop-color:#00c79d;stop-opacity:1;"
         offset="0"
         id="stop31" /><stop
         style="stop-color:#005eff;stop-opacity:1;"
         offset="1"
         id="stop32" /></linearGradient></defs><g
     id="layer1"><rect
       style="fill:url(#linearGradient19);fill-opacity:0.950108;stroke:none;stroke-width:0.439775;stroke-opacity:1"
       id="rect6-8"
       width="7.4083333"
       height="7.4083333"
       x="-5.0772094e-08"
       y="-5.0772094e-08"
       rx="0.99358821"
       ry="0.97970581" /><path
       fill="currentColor"
       d="M 5.5357531,2.0228662 C 5.200605,1.8666318 4.8377378,1.7532358 4.4597511,1.6877181 a 0.02519911,0.02519911 0 0 0 -0.01764,0.00756 c -0.045358,0.083157 -0.098276,0.1915129 -0.1335547,0.27467 a 4.0570567,4.0570567 0 0 0 -1.2095572,0 C 3.0637202,1.8842714 3.0108025,1.7784349 2.962924,1.6952778 c -0.00252,-0.00504 -0.010079,-0.00756 -0.01764,-0.00756 -0.3779867,0.065518 -0.7383339,0.1789137 -1.076002,0.3351481 -0.00252,0 -0.00504,0.00252 -0.00756,0.00504 -0.685418,1.0256021 -0.87441128,2.0234868 -0.7811745,3.0112919 0,0.00504 0.00252,0.010079 0.00756,0.012599 0.453584,0.3326282 0.8895286,0.5342211 1.3204334,0.6677764 0.00756,0.00252 0.015119,0 0.01764,-0.00504 0.1007964,-0.1385951 0.1915132,-0.28475 0.2696304,-0.4384645 0.00504,-0.010079 0,-0.02016 -0.010079,-0.02268 C 2.5420992,5.1979514 2.406024,5.1324334 2.2724686,5.056836 c -0.010079,-0.00504 -0.010079,-0.02016 -0.00252,-0.027719 0.027719,-0.02016 0.055438,-0.042838 0.083157,-0.062998 0.00504,-0.00504 0.012599,-0.00504 0.01764,-0.00252 0.8668495,0.395626 1.8017364,0.395626 2.6585062,0 0.00504,-0.00252 0.012599,-0.00252 0.01764,0.00252 0.027719,0.02268 0.055438,0.042838 0.083156,0.065518 0.010079,0.00756 0.010079,0.02268 -0.00252,0.027719 -0.1310354,0.078117 -0.2696305,0.141115 -0.4132654,0.196553 -0.010079,0.00252 -0.012599,0.015119 -0.010079,0.02268 0.080637,0.1537147 0.1713539,0.2998695 0.2696304,0.4384646 0.00756,0.00252 0.015119,0.00504 0.02268,0.00252 0.4334246,-0.1335553 0.8693693,-0.3351482 1.3229533,-0.6677763 0.00504,-0.00252 0.00756,-0.00756 0.00756,-0.012599 C 6.4378772,3.8976817 6.1430476,2.9073566 5.5458287,2.0279077 c -0.00252,-0.00252 -0.00504,-0.00504 -0.010079,-0.00504 M 2.8268488,4.436941 c -0.2595509,0 -0.4762631,-0.2393915 -0.4762631,-0.5342211 0,-0.2948296 0.2116725,-0.5342212 0.4762631,-0.5342212 0.2671106,0 0.4787831,0.2419115 0.4762632,0.5342212 0,0.2948296 -0.2116725,0.5342211 -0.4762632,0.5342211 m 1.756378,0 c -0.2595509,0 -0.4762632,-0.2393915 -0.4762632,-0.5342211 0,-0.2948296 0.2116725,-0.5342212 0.4762632,-0.5342212 0.2671105,0 0.4787831,0.2419115 0.4762632,0.5342212 0,0.2948296 -0.2091527,0.5342211 -0.4762632,0.5342211"
       id="path1"
       style="fill:#f9f9f9;stroke-width:0.251991" /></g></svg>
