<?xml version="1.0" encoding="UTF-8" standalone="no"?>
<!-- Created with Inkscape (http://www.inkscape.org/) -->

<svg
   width="28"
   height="28"
   viewBox="0 0 7.4083332 7.4083332"
   version="1.1"
   id="svg1"
   xml:space="preserve"
   xmlns:xlink="http://www.w3.org/1999/xlink"
   xmlns="http://www.w3.org/2000/svg"
   xmlns:svg="http://www.w3.org/2000/svg"><defs
     id="defs1"><linearGradient
       xlink:href="#linearGradient32"
       id="linearGradient19"
       gradientUnits="userSpaceOnUse"
       gradientTransform="scale(1.0370369)"
       x1="1.7859378"
       y1="6.6652098"
       x2="5.3578129"
       y2="0.47854009" /><linearGradient
       id="linearGradient32"><stop
         style="stop-color:#00c79d;stop-opacity:1;"
         offset="0"
         id="stop31" /><stop
         style="stop-color:#005eff;stop-opacity:1;"
         offset="1"
         id="stop32" /></linearGradient></defs><g
     id="layer1"><rect
       style="fill:url(#linearGradient19);fill-opacity:0.950108;stroke:none;stroke-width:0.439775;stroke-opacity:1"
       id="rect6-8"
       width="7.4083333"
       height="7.4083333"
       x="-5.0772094e-08"
       y="-5.0772094e-08"
       rx="0.99358821"
       ry="0.97970581" /><path
       fill="currentColor"
       d="M 3.2937526,2.6953396 H 2.4742677 C 2.0608561,2.5869225 1.1256159,2.6151376 1.1256159,3.468316 c 0,0.3109886 0.1550295,0.5294764 0.3617353,0.6304522 C 1.2279354,4.33648 1.1049456,4.4486177 1.1049456,4.6073678 c 0,0.1136882 0.046199,0.2184878 0.184898,0.2770888 -0.1474844,0.1385964 -0.2315103,0.2392619 -0.2315103,0.4283978 0,0.3318662 0.289905,0.5252391 1.0503753,0.5252391 0.7312215,0 1.1553816,-0.2730581 1.1553816,-0.7563363 0,-0.6062676 -0.4667415,-0.5839437 -1.5671394,-0.651123 L 1.8357535,4.2079088 c 0.2818435,0.078341 1.2267987,0.1033525 1.2267987,-0.7016628 0,-0.1932698 -0.079892,-0.3277318 -0.1550295,-0.4244697 L 3.2941658,3.0524248 Z M 2.6382884,5.1954455 c 0,0.3313491 -1.0840681,0.331763 -1.0840681,0.025114 0,-0.08413 0.054466,-0.1550291 0.109244,-0.2226223 0.8031551,0.054777 0.9748241,0.03483 0.9748241,0.1975076 M 2.1131527,3.804522 c -0.5457031,0 -0.5215187,-0.735459 0.012403,-0.735459 0.5120098,0 0.5252391,0.735459 -0.012403,0.735459 M 3.4908463,4.8433217 V 4.5115591 C 3.7673154,4.4737321 3.7723798,4.4908882 3.7723798,4.3978707 V 3.1627006 c 0,-0.08785 -0.021189,-0.076275 -0.2815335,-0.1680517 L 3.5370453,2.654411 h 0.8699209 v 1.7436663 c 0,0.067283 0.00414,0.075655 0.067282,0.08413 l 0.2142506,0.029351 V 4.843321 Z M 4.0329324,2.3183076 c -0.2394686,0 -0.3781684,-0.138803 -0.3781684,-0.3783748 0,-0.2395719 0.1386998,-0.3696932 0.3781684,-0.3696932 0.2437059,0 0.3824056,0.1304312 0.3824056,0.3696932 0,0.2392619 -0.1386997,0.3783748 -0.3824056,0.3783748 m 2.3170675,2.36213 c -0.180764,0.08816 -0.4454506,0.1680515 -0.6850225,0.1680515 -0.5000211,0 -0.6890536,-0.201538 -0.6890536,-0.6765477 V 3.07113 c 0,-0.056017 0.010852,-0.041961 -0.3277319,-0.041961 V 2.6551347 C 5.0179885,2.6130704 5.1649563,2.4277581 5.211155,1.9702152 h 0.3992519 c 0,0.6803719 -0.013849,0.6388241 0.033694,0.6388241 H 6.2363128 V 3.0291687 H 5.6104074 v 1.0040729 c 0,0.071521 -0.05085,0.5313372 0.6260084,0.2773991 z"
       id="path1"
       style="fill:#f9f9f9;stroke-width:0.0103353" /></g></svg>
