<?xml version="1.0" encoding="UTF-8" standalone="no"?>
<!-- Created with Inkscape (http://www.inkscape.org/) -->

<svg
   width="28"
   height="28"
   viewBox="0 0 7.4083332 7.4083332"
   version="1.1"
   id="svg1"
   xml:space="preserve"
   xmlns:xlink="http://www.w3.org/1999/xlink"
   xmlns="http://www.w3.org/2000/svg"
   xmlns:svg="http://www.w3.org/2000/svg"><defs
     id="defs1"><linearGradient
       xlink:href="#linearGradient32"
       id="linearGradient19"
       gradientUnits="userSpaceOnUse"
       gradientTransform="scale(1.0370369)"
       x1="1.7859378"
       y1="6.6652098"
       x2="5.3578129"
       y2="0.47854009" /><linearGradient
       id="linearGradient32"><stop
         style="stop-color:#00c79d;stop-opacity:1;"
         offset="0"
         id="stop31" /><stop
         style="stop-color:#005eff;stop-opacity:1;"
         offset="1"
         id="stop32" /></linearGradient></defs><g
     id="layer1"><rect
       style="fill:url(#linearGradient19);fill-opacity:0.950108;stroke:none;stroke-width:0.439775;stroke-opacity:1"
       id="rect6-8"
       width="7.4083333"
       height="7.4083333"
       x="-5.0772094e-08"
       y="-5.0772094e-08"
       rx="0.99358821"
       ry="0.97970581" /><path
       fill="currentColor"
       d="m 3.7043002,1.1235392 c -1.4618962,0 -2.6459659,1.1840698 -2.6459659,2.6459659 a 2.6433199,2.6433199 0 0 0 1.8090469,2.5104924 c 0.1322983,0.02302 0.1820425,-0.056359 0.1820425,-0.125948 0,-0.062709 -0.00344,-0.2709468 -0.00344,-0.4926789 C 2.3813175,5.7838789 2.2093297,5.4994375 2.1564104,5.3504697 2.1265114,5.2742657 1.9976525,5.0395687 1.8851988,4.9765947 1.7925898,4.9271157 1.6602918,4.8046069 1.8817588,4.8014318 2.0902608,4.7979918 2.2389641,4.9932643 2.2887082,5.0726432 2.5268452,5.4727133 2.9070705,5.3602598 3.0592135,5.2909355 3.0824975,5.1189477 3.1518225,5.003319 3.2280261,4.9371699 2.6392987,4.8710209 2.0241117,4.6426738 2.0241117,3.6305919 c 0,-0.2878811 0.1023988,-0.5257534 0.2712115,-0.710971 -0.026459,-0.066149 -0.1190685,-0.3373607 0.026459,-0.7011809 0,0 0.2214674,-0.069589 0.7276407,0.2709468 a 2.4607483,2.4607483 0 0 1 0.6614914,-0.089169 c 0.2249071,0 0.4498142,0.029634 0.6614914,0.089169 C 4.878579,2.1454113 5.1000464,2.21844 5.1000464,2.21844 c 0.1455281,0.3638202 0.05292,0.6350318 0.026459,0.7011809 0.1685481,0.1852176 0.2712115,0.4199147 0.2712115,0.710971 0,1.0155217 -0.6183622,1.2404287 -1.2070896,1.306578 0.095784,0.082554 0.1786027,0.241312 0.1786027,0.4895036 0,0.3537656 -0.00344,0.638207 -0.00344,0.7276406 0,0.069324 0.049745,0.1518784 0.1820425,0.1254188 A 2.6512578,2.6512578 0 0 0 6.3499999,3.7695051 c 0,-1.4618961 -1.1840697,-2.6459659 -2.6459659,-2.6459659"
       id="path1"
       style="fill:#f9f9f9;stroke-width:0.264596" /></g></svg>
