<?xml version="1.0" encoding="UTF-8" standalone="no"?>
<!-- Created with Inkscape (http://www.inkscape.org/) -->

<svg
   width="28"
   height="28"
   viewBox="0 0 7.4083332 7.4083332"
   version="1.1"
   id="svg1"
   xml:space="preserve"
   xmlns:xlink="http://www.w3.org/1999/xlink"
   xmlns="http://www.w3.org/2000/svg"
   xmlns:svg="http://www.w3.org/2000/svg"><defs
     id="defs1"><linearGradient
       xlink:href="#linearGradient32"
       id="linearGradient19"
       gradientUnits="userSpaceOnUse"
       gradientTransform="scale(1.0370369)"
       x1="1.7859378"
       y1="6.6652098"
       x2="5.3578129"
       y2="0.47854009" /><linearGradient
       id="linearGradient32"><stop
         style="stop-color:#00c79d;stop-opacity:1;"
         offset="0"
         id="stop31" /><stop
         style="stop-color:#005eff;stop-opacity:1;"
         offset="1"
         id="stop32" /></linearGradient></defs><g
     id="layer1"><rect
       style="fill:url(#linearGradient19);fill-opacity:0.950108;stroke:none;stroke-width:0.439775;stroke-opacity:1"
       id="rect6-8"
       width="7.4083333"
       height="7.4083333"
       x="-5.0772094e-08"
       y="-5.0772094e-08"
       rx="0.99358821"
       ry="0.97970581" /><path
       fill="currentColor"
       d="M 3.887503,3.0036032 3.2349245,1.0778438 H 6.0073937 L 5.3525591,3.0092044 a 0.65657989,0.65657989 0 0 0 -0.082923,0.0257 L 4.6227501,1.7152711 3.9739873,3.0270971 A 0.65657989,0.65657989 0 0 0 3.8875048,3.0036063 M 1.7553931,6.1560107 C 2.6274237,6.7685271 3.5946782,5.5833084 4.9122084,5.4339981 5.6688144,5.3891671 6.1830801,4.92599 5.8900614,4.2089735 5.3452546,4.5445372 4.836087,4.1048139 4.8396465,3.6635714 H 4.4256624 C 4.4120695,4.0575089 4.1157568,4.3674353 3.6564485,4.321362 3.2969304,4.8591933 2.8802474,5.1613735 2.4074487,5.3149722 2.0878889,5.1674987 1.7871655,4.8082772 1.9235083,4.3284816 A 0.66376127,0.66376127 0 0 1 1.7505916,4.2850727 c -0.4395187,0.8207145 -0.4938302,1.4693336 0.00479,1.8709351 m 0.6491962,-2.492378 c 0,-0.3117213 -0.3397702,-0.5075979 -0.610107,-0.3517422 -0.2703363,0.1558556 -0.2703566,0.5476288 0,0.7034745 0.2703368,0.1558655 0.610107,-0.04001 0.610107,-0.3517323 m 1.7584848,-0.00384 c 0,-0.3117113 -0.3397799,-0.5075978 -0.6101168,-0.3517323 -0.270336,0.1558662 -0.2703464,0.5476189 0,0.703464 C 3.8232908,4.1673876 4.16305,3.9715115 4.16305,3.6597898 m 1.7518788,0 c 0,-0.3117113 -0.3397799,-0.5075978 -0.6101168,-0.3517323 -0.270336,0.1558662 -0.2703472,0.5476189 0,0.703464 0.2703473,0.1558661 0.6101065,-0.04001 0.6101065,-0.3517317"
       id="path1"
       style="fill:#f9f9f9;stroke-width:0.0102591" /></g></svg>
