<?xml version="1.0" encoding="UTF-8" standalone="no"?>
<!-- Created with Inkscape (http://www.inkscape.org/) -->

<svg
   width="28"
   height="28"
   viewBox="0 0 7.4083332 7.4083332"
   version="1.1"
   id="svg1"
   xml:space="preserve"
   xmlns:xlink="http://www.w3.org/1999/xlink"
   xmlns="http://www.w3.org/2000/svg"
   xmlns:svg="http://www.w3.org/2000/svg"><defs
     id="defs1"><linearGradient
       xlink:href="#linearGradient32"
       id="linearGradient19"
       gradientUnits="userSpaceOnUse"
       gradientTransform="scale(1.0370369)"
       x1="1.7859378"
       y1="6.6652098"
       x2="5.3578129"
       y2="0.47854009" /><linearGradient
       id="linearGradient32"><stop
         style="stop-color:#00c79d;stop-opacity:1;"
         offset="0"
         id="stop31" /><stop
         style="stop-color:#005eff;stop-opacity:1;"
         offset="1"
         id="stop32" /></linearGradient></defs><g
     id="layer1"><rect
       style="fill:url(#linearGradient19);fill-opacity:0.950108;stroke:none;stroke-width:0.439775;stroke-opacity:1"
       id="rect6-8"
       width="7.4083333"
       height="7.4083333"
       x="-5.0772094e-08"
       y="-5.0772094e-08"
       rx="0.99358821"
       ry="0.97970581" /><path
       fill="currentColor"
       d="m 4.985465,6.0194828 c -0.019678,0.010418 -0.018025,0.013725 8.25e-4,0.00413 a 0.049608,0.049608 0 0 0 0.015709,-0.010087 c 0,-0.00347 0,-0.00347 -0.016536,0.00596 m 0.039686,-0.021497 c -0.00943,0.00777 -0.00943,0.00777 0.00182,0.00264 a 0.049608,0.049608 0 0 0 0.011245,-0.00777 c 0,-0.00446 -0.00264,-0.00347 -0.013063,0.00512 m 0.025796,-0.015544 c -0.00943,0.00777 -0.00943,0.00777 0.00182,0.00264 a 0.049608,0.049608 0 0 0 0.011245,-0.00794 c 0,-0.00413 -0.00264,-0.00331 -0.013063,0.00529 m 0.026127,-0.015378 c -0.00943,0.00777 -0.00943,0.00777 0.00149,0.00248 0.00612,-0.00331 0.011245,-0.00678 0.011245,-0.00777 0,-0.00413 -0.00264,-0.00331 -0.012733,0.00529 M 5.1123,5.9437308 c -0.018025,0.012072 -0.024308,0.019843 -0.00777,0.011245 0.011079,-0.00678 0.02993,-0.021662 0.026623,-0.021662 -0.00711,0.00264 -0.013063,0.00711 -0.019016,0.010418 z M 3.5309584,1.0596748 c -0.012072,8.249e-4 -0.048285,0.00413 -0.080034,0.00678 C 2.6988669,1.1345828 1.9952601,1.5393844 1.5492843,2.162957 A 2.6126881,2.6126881 0 0 0 1.0823078,3.3186581 c -0.021331,0.1455168 -0.023974,0.1885104 -0.023974,0.3857849 0,0.1971091 0.00262,0.2394413 0.023974,0.3849581 0.1440286,0.993979 0.8511077,1.8283855 1.8095344,2.1376088 0.1724702,0.055065 0.3532089,0.093098 0.5590822,0.1164134 0.080034,0.0086 0.4261327,0.0086 0.5061669,0 0.3558548,-0.039686 0.6563139,-0.1274925 0.9536312,-0.2791277 0.045639,-0.023151 0.054238,-0.029268 0.04812,-0.034395 A 56.387762,56.387762 0 0 1 4.5274178,5.4519673 L 4.1045923,4.8809792 3.5749442,4.0963459 A 68.78976,68.78976 0 0 0 3.0409966,3.3118781 c -0.00181,0 -0.00412,0.3487443 -0.00512,0.7740501 -0.00181,0.7449469 -0.00181,0.7752078 -0.011243,0.7924052 a 0.09425521,0.09425521 0 0 1 -0.045636,0.047458 c -0.016368,0.00777 -0.031087,0.00943 -0.1093027,0.00943 h -0.089461 l -0.023318,-0.014551 a 0.09921601,0.09921601 0 0 1 -0.034393,-0.037868 l -0.011243,-0.023316 8.125e-4,-1.0369725 0.00181,-1.0369726 0.016368,-0.02067 a 0.132288,0.132288 0 0 1 0.037868,-0.030922 c 0.021662,-0.010418 0.030262,-0.012071 0.1197204,-0.012071 0.105004,0 0.1223666,0.00413 0.1499815,0.034395 a 99.712086,99.712086 0 0 1 0.6381246,0.9610712 c 0.3437798,0.5212102 0.8130715,1.2324236 1.0437487,1.5813332 l 0.41952,0.6348176 0.02067,-0.013725 A 2.7119041,2.7119041 0 0 0 5.7031112,5.4427071 2.6358385,2.6358385 0 0 0 6.3260224,4.0905583 c 0.021331,-0.1455167 0.023977,-0.1886757 0.023977,-0.3857849 0,-0.1971091 -0.00264,-0.2394412 -0.023977,-0.384958 C 6.18201,2.3258364 5.4749306,1.4914297 4.5165041,1.1820411 A 2.8111201,2.8111201 0 0 0 3.9661859,1.0667852 c -0.050104,-0.00512 -0.3920685,-0.011245 -0.4350621,-0.00678 z m 1.082612,1.6001888 a 0.1025232,0.1025232 0 0 1 0.052419,0.060191 c 0.00446,0.01389 0.00529,0.3014513 0.00446,0.9491664 L 4.6686352,4.5992057 4.5050942,4.3478585 4.340561,4.0963459 V 3.421181 c 0,-0.4377079 0.00182,-0.6831021 0.00413,-0.6951734 a 0.1107912,0.1107912 0 0 1 0.051758,-0.065317 c 0.020504,-0.010418 0.028442,-0.011245 0.1102951,-0.011245 0.076562,0 0.08946,8.25e-4 0.1066572,0.010418 z"
       id="path1"
       style="fill:#f9f9f9;stroke-width:0.16536" /></g></svg>
