<?xml version="1.0" encoding="UTF-8" standalone="no"?>
<!-- Created with Inkscape (http://www.inkscape.org/) -->

<svg
   width="28"
   height="28"
   viewBox="0 0 7.4083332 7.4083332"
   version="1.1"
   id="svg1"
   xml:space="preserve"
   xmlns:xlink="http://www.w3.org/1999/xlink"
   xmlns="http://www.w3.org/2000/svg"
   xmlns:svg="http://www.w3.org/2000/svg"><defs
     id="defs1"><linearGradient
       xlink:href="#linearGradient32"
       id="linearGradient19"
       gradientUnits="userSpaceOnUse"
       gradientTransform="scale(1.0370369)"
       x1="1.7859378"
       y1="6.6652098"
       x2="5.3578129"
       y2="0.47854009" /><linearGradient
       id="linearGradient32"><stop
         style="stop-color:#00c79d;stop-opacity:1;"
         offset="0"
         id="stop31" /><stop
         style="stop-color:#005eff;stop-opacity:1;"
         offset="1"
         id="stop32" /></linearGradient></defs><g
     id="layer1"><rect
       style="fill:url(#linearGradient19);fill-opacity:0.950108;stroke:none;stroke-width:0.439775;stroke-opacity:1"
       id="rect6-8"
       width="7.4083333"
       height="7.4083333"
       x="-5.0772094e-08"
       y="-5.0772094e-08"
       rx="0.99358821"
       ry="0.97970581" /><path
       fill="currentColor"
       d="M 2.1178322,3.2862248 H 1.8200501 L 1.6574615,4.121663 H 1.921835 q 0.2630372,0 0.3919944,-0.099112 Q 2.4423413,3.923439 2.4873315,3.6915829 2.5305395,3.4690816 2.4481315,3.377542 2.3657235,3.286002 2.1178316,3.286225 m 0.545674,0.9249733 C 2.5813209,4.290042 2.4822085,4.349287 2.3744101,4.3849228 Q 2.2151623,4.4365948 1.9690522,4.4368176 H 1.5959893 L 1.492868,4.9673464 H 1.0583333 L 1.4463186,2.9712929 H 2.282425 q 0.3772946,0 0.5503513,0.1982244 0.1732793,0.1977791 0.1042349,0.5528013 A 0.89089643,0.89089643 0 0 1 2.8407944,3.9895875 0.89089643,0.89089643 0 0 1 2.6637287,4.2111981 M 3.9334788,4.4368176 4.1049764,3.5537165 Q 4.134376,3.4029323 4.0833719,3.3483648 4.0328138,3.293352 3.8666613,3.293352 H 3.5221071 L 3.3000511,4.437263 H 2.8681891 L 3.2561745,2.4407641 H 3.6875911 L 3.5844698,2.9715156 h 0.3841991 q 0.3630403,0 0.5004611,0.1265073 0.1374208,0.1265073 0.083076,0.4098124 L 4.3717996,4.4368176 Z M 6.3306585,3.7223186 C 6.3132855,3.8158626 6.2807675,3.906066 6.2344415,3.9895875 A 0.89089643,0.89089643 0 0 1 6.0573759,4.2111981 C 5.974968,4.2898197 5.8760785,4.349287 5.7680574,4.3849228 Q 5.6088096,4.4365948 5.362254,4.4368176 H 4.990082 L 4.886738,4.9675691 H 4.4517582 L 4.8399663,2.9715156 h 0.8356609 q 0.3772946,0 0.5503512,0.1982245 0.1732794,0.1973335 0.1044577,0.5523558 M 5.5117023,3.2862248 H 5.2141428 L 5.0513315,4.121663 H 5.315705 q 0.2634826,0 0.3919944,-0.099112 Q 5.8362113,3.9234385 5.8814243,3.6915826 5.9246327,3.4690813 5.842002,3.3775417 5.7593714,3.2860021 5.5117023,3.2862248"
       id="path1"
       style="fill:#f9f9f9;stroke-width:0.222724" /></g></svg>
