<?xml version="1.0" encoding="UTF-8" standalone="no"?>
<!-- Created with Inkscape (http://www.inkscape.org/) -->

<svg
   width="28"
   height="28"
   viewBox="0 0 7.4083332 7.4083332"
   version="1.1"
   id="svg1"
   xml:space="preserve"
   xmlns:xlink="http://www.w3.org/1999/xlink"
   xmlns="http://www.w3.org/2000/svg"
   xmlns:svg="http://www.w3.org/2000/svg"><defs
     id="defs1"><linearGradient
       xlink:href="#linearGradient32"
       id="linearGradient19"
       gradientUnits="userSpaceOnUse"
       gradientTransform="scale(1.0370369)"
       x1="1.7859378"
       y1="6.6652098"
       x2="5.3578129"
       y2="0.47854009" /><linearGradient
       id="linearGradient32"><stop
         style="stop-color:#00c79d;stop-opacity:1;"
         offset="0"
         id="stop31" /><stop
         style="stop-color:#005eff;stop-opacity:1;"
         offset="1"
         id="stop32" /></linearGradient></defs><g
     id="layer1"><rect
       style="fill:url(#linearGradient19);fill-opacity:0.950108;stroke:none;stroke-width:0.439775;stroke-opacity:1"
       id="rect6-8"
       width="7.4083333"
       height="7.4083333"
       x="-5.0772094e-08"
       y="-5.0772094e-08"
       rx="0.99358821"
       ry="0.97970581" /><path
       fill="currentColor"
       d="M 6.2533083,3.0192677 C 6.159014,2.658339 5.9869403,2.374657 5.6260117,2.374657 H 5.1452175 v 0.5673639 c 0,0.4381754 -0.3782426,0.8076278 -0.7820564,0.8076278 H 3.0821975 c -0.3521387,0 -0.6272968,0.3009958 -0.6272968,0.6531343 v 1.2119744 c 0,0.3348246 0.3009959,0.5412597 0.6272968,0.6528679 0.3955563,0.1203985 0.7820563,0.1462361 1.271907,0 0.3180435,-0.094561 0.627563,-0.2748917 0.627563,-0.6531342 V 5.1331641 H 3.7182841 V 4.9786706 h 1.9077276 c 0.3609286,0 0.5071647,-0.2578442 0.6272966,-0.6446105 0.1289221,-0.4211278 0.1289221,-0.8078941 0,-1.3147924 M 4.4313512,5.4253698 c 0.1291885,0 0.2407968,0.1118749 0.2407968,0.2407966 0,0.1289221 -0.111875,0.2405303 -0.2405304,0.2405303 C 4.3026956,5.9152209 4.1908209,5.7948222 4.1908209,5.6661664 4.1822938,5.5372443 4.2939053,5.4253698 4.4316176,5.4253698 M 3.0225309,3.5863651 h 1.2719072 c 0.3521386,0 0.6272966,-0.2922057 0.6272966,-0.6531343 V 1.7385704 c 0,-0.3350909 -0.2922057,-0.5929352 -0.627563,-0.6531343 -0.4208613,-0.059933 -0.8851408,-0.059933 -1.2716408,0 C 2.4810049,1.1799967 2.394968,1.3776418 2.394968,1.7385704 V 2.2198973 H 3.6668752 V 2.3743908 H 1.9306885 c -0.3609287,0 -0.6874957,0.2322728 -0.7820564,0.6446105 -0.1203984,0.481327 -0.1203984,0.7820565 0,1.2806974 0.094561,0.3782425 0.3009957,0.6446105 0.678972,0.6446105 h 0.412604 V 4.3684216 C 2.2314193,3.9472937 2.6011368,3.5863651 3.0222646,3.5863651 M 2.945018,1.8933302 A 0.24585766,0.24585766 0 0 1 2.7042212,1.6527998 c 0,-0.128922 0.111875,-0.2407965 0.2405303,-0.2407965 0.1286557,0 0.2407966,0.111875 0.2407966,0.2407965 0,0.1289222 -0.1118749,0.2405304 -0.2407966,0.2405304"
       id="path1"
       style="fill:#f9f9f9;stroke-width:0.266367" /></g></svg>
