<?xml version="1.0" encoding="UTF-8" standalone="no"?>
<!-- Created with Inkscape (http://www.inkscape.org/) -->

<svg
   width="28"
   height="28"
   viewBox="0 0 7.4083332 7.4083332"
   version="1.1"
   id="svg1"
   xml:space="preserve"
   xmlns:xlink="http://www.w3.org/1999/xlink"
   xmlns="http://www.w3.org/2000/svg"
   xmlns:svg="http://www.w3.org/2000/svg"><defs
     id="defs1"><linearGradient
       xlink:href="#linearGradient32"
       id="linearGradient19"
       gradientUnits="userSpaceOnUse"
       gradientTransform="scale(1.0370369)"
       x1="1.7859378"
       y1="6.6652098"
       x2="5.3578129"
       y2="0.47854009" /><linearGradient
       id="linearGradient32"><stop
         style="stop-color:#00c79d;stop-opacity:1;"
         offset="0"
         id="stop31" /><stop
         style="stop-color:#005eff;stop-opacity:1;"
         offset="1"
         id="stop32" /></linearGradient></defs><g
     id="layer1"><rect
       style="fill:url(#linearGradient19);fill-opacity:0.950108;stroke:none;stroke-width:0.439775;stroke-opacity:1"
       id="rect6-8"
       width="7.4083333"
       height="7.4083333"
       x="-5.0772094e-08"
       y="-5.0772094e-08"
       rx="0.99358821"
       ry="0.97970581" /><path
       fill="currentColor"
       d="M 4.1958508,3.7047397 A 0.49300691,0.49300691 0 0 1 3.7030643,4.1977466 0.49300691,0.49300691 0 0 1 3.2100574,3.7047397 0.49300691,0.49300691 0 0 1 3.7028438,3.2117328 0.49300691,0.49300691 0 0 1 4.1958508,3.7047397 M 4.7796979,1.3477433 c -0.2967742,0 -0.6850503,0.2116666 -1.077736,0.5781145 C 3.3094966,1.5613943 2.9210001,1.3521529 2.6244463,1.3521529 c -0.090399,0 -0.1726406,0.020505 -0.2438576,0.061295 C 2.0774203,1.5882934 2.0095106,2.1331146 2.1660557,2.816842 1.4948959,3.0240989 1.0583333,3.3554895 1.0583333,3.7047395 c 0,0.3505729 0.4387676,0.6828454 1.1119116,0.888559 -0.1552221,0.6863732 -0.08599,1.2320762 0.2178404,1.4067012 0.070556,0.041231 0.1521354,0.060633 0.2429756,0.060633 0.2965538,0 0.6850503,-0.2116667 1.077736,-0.5785555 0.3924653,0.364684 0.7809618,0.5739253 1.0775156,0.5739253 0.090399,0 0.1726406,-0.019844 0.2438576,-0.060633 C 5.333118,5.8207446 5.4012482,5.2759234 5.2447031,4.5919756 5.9134374,4.3864825 6.3499999,4.0544304 6.3499999,3.7047395 c 0,-0.3505729 -0.4387673,-0.6828455 -1.1119113,-0.889 C 5.3933107,2.1300279 5.3240781,1.5838838 5.0202482,1.4090383 A 0.47845483,0.47845483 0 0 0 4.7794774,1.3477433 Z m -0.0011,0.2403298 v 0.00133 c 0.049609,0 0.089517,0.0097 0.1230312,0.028002 0.1468414,0.084225 0.2105619,0.4045915 0.1609525,0.8166801 -0.011907,0.1014236 -0.031309,0.2083593 -0.055122,0.3174999 A 5.1814233,5.1814233 0 0 0 4.3224098,2.6338386 5.2916664,5.2916664 0 0 0 3.8737205,2.0943092 C 4.2247344,1.7679898 4.5543612,1.588955 4.778816,1.5882936 Z m -2.1541492,0.00441 c 0.223132,0 0.5543021,0.1781528 0.9061979,0.5027083 C 3.3793907,2.2539395 3.2285782,2.4340766 3.0852622,2.6336165 A 5.0711803,5.0711803 0 0 0 2.398889,2.752238 3.3072914,3.3072914 0 0 1 2.3428857,2.4391478 c -0.050712,-0.4118681 0.011907,-0.7320139 0.157427,-0.817342 0.041892,-0.019844 0.088195,-0.028002 0.1241337,-0.029104 z M 3.7008594,2.2649657 Q 3.8516719,2.420188 4.0007205,2.609806 C 3.9037065,2.605396 3.8044879,2.602306 3.7041667,2.602306 Q 3.5518109,2.6020855 3.4043056,2.609806 C 3.5013196,2.483686 3.6016407,2.3681512 3.7008594,2.2647433 Z m 0.00331,0.5789966 c 0.1631597,0 0.325658,0.0075 0.4855104,0.020505 q 0.1344955,0.192705 0.260834,0.4101043 0.1228107,0.2118872 0.2244548,0.429066 C 4.607057,3.8480539 4.532533,3.9924723 4.4516146,4.1335835 4.3678299,4.2791042 4.2811788,4.4175696 4.191441,4.5458925 A 5.6444441,5.6444441 0 0 1 3.2186564,4.5469925 5.9531247,5.9531247 0 0 1 2.9578213,4.1368883 Q 2.8350106,3.9250012 2.7333664,3.7078223 A 5.5121524,5.5121524 0 0 1 2.9567189,3.2769925 c 0.083785,-0.1455208 0.1704357,-0.283545 0.2601736,-0.411868 a 5.5121524,5.5121524 0 0 1 0.4872742,-0.021608 z m -0.801467,0.056003 C 2.8497842,2.983087 2.7968675,3.0681945 2.7474787,3.1557275 Q 2.6733945,3.2847119 2.6074689,3.4145783 C 2.5490397,3.2699394 2.4994307,3.1257415 2.4584203,2.9852919 2.5995314,2.952219 2.7483595,2.9228943 2.9026997,2.9001842 Z m 1.6007291,0 q 0.2301875,0.033734 0.4422952,0.085328 C 4.9060367,3.124641 4.8564267,3.267957 4.8002032,3.4114934 A 5.7326385,5.7326385 0 0 0 4.5036493,2.8999637 Z m 0.6753473,0.1488285 q 0.1602934,0.04983 0.3031684,0.1098021 C 5.863828,3.3217536 6.1107725,3.5351842 6.1107725,3.7045175 6.1096725,3.8738508 5.8627256,4.0881633 5.4808437,4.2502206 5.3882395,4.2899081 5.286816,4.3256272 5.1820851,4.3589202 A 5.2916664,5.2916664 0 0 0 4.9395503,3.7018733 C 5.0387691,3.4776389 5.1181441,3.2586963 5.1787777,3.0483525 Z m -2.9534112,8.833e-4 c 0.061295,0.2116667 0.1422135,0.4314913 0.2425346,0.6570486 A 5.0711803,5.0711803 0 0 0 2.2284533,4.3602448 C 2.121738,4.3271723 2.0203144,4.2901302 1.9263875,4.2500017 1.544505,4.0875035 1.2975609,3.8738525 1.2975609,3.7045192 c 0,-0.1693334 0.2469441,-0.3840868 0.6288266,-0.5459236 0.092604,-0.039687 0.1940276,-0.075407 0.298979,-0.1089202 M 4.8002032,3.993356 c 0.058429,0.1448593 0.1080381,0.2892777 0.1490485,0.4295069 -0.141111,0.034617 -0.2901597,0.063941 -0.4445,0.08599 A 5.7326385,5.7326385 0 0 0 4.8004237,3.9933564 Z M 2.6074689,3.997766 C 2.6515659,4.084197 2.6978679,4.1704067 2.74858,4.2568372 Q 2.824647,4.3860417 2.9040226,4.5088525 A 4.8506941,4.8506941 0 0 1 2.4617276,4.4237448 C 2.5014151,4.2848386 2.5512449,4.1410817 2.6072484,3.9975452 Z m 2.4019755,0.658592 c 0.024694,0.1086997 0.044098,0.2134306 0.056003,0.3137517 0.050712,0.4118681 -0.011907,0.7320138 -0.1574271,0.8175625 -0.032412,0.019844 -0.074524,0.028223 -0.1241336,0.028223 -0.2231319,0 -0.5543021,-0.1779322 -0.9061979,-0.5027082 C 4.0289426,5.1544348 4.1797551,4.9745181 4.323071,4.7751986 4.5671492,4.7491811 4.7979981,4.7090528 5.0094442,4.6561361 Z M 2.4010939,4.658568 C 2.6127606,4.710159 2.843389,4.750066 3.0861442,4.7758632 3.2316651,4.9754031 3.382698,5.1566427 3.5348334,5.3151722 3.1831581,5.642151 2.8530904,5.8211857 2.6286356,5.8211857 A 0.26458331,0.26458331 0 0 1 2.5067067,5.7920815 C 2.359863,5.7082968 2.2961425,5.38771 2.3457519,4.9756215 2.3576586,4.874198 2.3770611,4.7674826 2.4008736,4.6585625 Z m 1.0054166,0.1411077 q 0.1457413,0.00706 0.2965538,0.0075 0.1523559,2.205e-4 0.2998611,-0.0075 C 3.9059115,4.9257916 3.8055904,5.0411059 3.7063716,5.1447344 Q 3.5555591,4.9890712 3.4065105,4.7996736"
       id="path1"
       style="fill:#f9f9f9;stroke-width:0.220486" /></g></svg>
