<?xml version="1.0" encoding="UTF-8" standalone="no"?>
<!-- Created with Inkscape (http://www.inkscape.org/) -->

<svg
   width="28"
   height="28"
   viewBox="0 0 7.4083332 7.4083332"
   version="1.1"
   id="svg1"
   xml:space="preserve"
   xmlns:xlink="http://www.w3.org/1999/xlink"
   xmlns="http://www.w3.org/2000/svg"
   xmlns:svg="http://www.w3.org/2000/svg"><defs
     id="defs1"><linearGradient
       xlink:href="#linearGradient32"
       id="linearGradient19"
       gradientUnits="userSpaceOnUse"
       gradientTransform="scale(1.0370369)"
       x1="1.7859378"
       y1="6.6652098"
       x2="5.3578129"
       y2="0.47854009" /><linearGradient
       id="linearGradient32"><stop
         style="stop-color:#00c79d;stop-opacity:1;"
         offset="0"
         id="stop31" /><stop
         style="stop-color:#005eff;stop-opacity:1;"
         offset="1"
         id="stop32" /></linearGradient></defs><g
     id="layer1"><rect
       style="fill:url(#linearGradient19);fill-opacity:0.950108;stroke:none;stroke-width:0.439775;stroke-opacity:1"
       id="rect6-8"
       width="7.4083333"
       height="7.4083333"
       x="-5.0772094e-08"
       y="-5.0772094e-08"
       rx="0.99358821"
       ry="0.97970581" /><path
       fill="currentColor"
       d="M 4.0615975,5.9956534 C 4.1555135,5.9285774 4.2896968,5.8212253 4.3634908,5.7541391 5.649777,6.2651562 6.06943,5.2663765 6.035923,4.8851808 5.9988201,4.4630885 5.4747284,3.2585131 3.6926284,3.2584819 3.6088294,3.4548831 3.3637912,3.5534093 3.1611165,3.4360109 2.912388,3.2919371 2.912388,2.9298205 3.1611165,2.785757 3.3543344,2.6738256 3.5860098,2.758183 3.6798232,2.9364556 4.7617707,2.9309556 5.9747278,3.390484 6.3139108,4.6691633 6.5585467,5.5913276 5.5322131,6.6663507 4.0615975,5.9956534 M 4.7272508,4.691415 C 4.9062577,4.67032 5.061421,4.5209142 5.061421,4.3184671 5.061421,4.0303301 4.7471774,3.8492665 4.4971361,3.9933403 4.2777907,4.1197198 4.250919,4.4138822 4.4164171,4.5814583 3.8227283,5.6883445 2.4968065,6.1211341 1.7971088,5.7010262 1.4096397,5.4683794 1.010078,4.6355427 1.9416166,3.868976 1.9147756,3.781767 1.8745196,3.634169 1.8543966,3.5268268 0.17959732,4.7889284 1.3851857,6.7971536 3.2735529,6.0150945 3.7840946,5.8036554 4.3376515,5.4341178 4.7272395,4.691415 M 2.6849492,5.1199154 c 0.2503923,0.1440736 0.5650807,-0.037001 0.5650807,-0.325127 0,-0.2404602 -0.2191593,-0.4061759 -0.437213,-0.3707569 C 1.4277464,1.8368451 4.3438939,0.30045576 4.7190539,2.7486121 L 5.0544952,2.8492462 C 4.810583,0.87994366 3.3381483,1.060139 2.8664467,1.4589874 2.5129289,1.7579142 1.567872,2.8097552 2.5442654,4.611523 2.4501844,4.7809181 2.4970754,5.0118078 2.6849593,5.119915"
       id="path1"
       style="fill:#f9f9f9;stroke-width:0.0103353" /></g></svg>
