<?xml version="1.0" encoding="UTF-8" standalone="no"?>
<!-- Created with Inkscape (http://www.inkscape.org/) -->

<svg
   width="28"
   height="28"
   viewBox="0 0 7.4083332 7.4083332"
   version="1.1"
   id="svg1"
   xml:space="preserve"
   xmlns:xlink="http://www.w3.org/1999/xlink"
   xmlns="http://www.w3.org/2000/svg"
   xmlns:svg="http://www.w3.org/2000/svg"><defs
     id="defs1"><linearGradient
       xlink:href="#linearGradient32"
       id="linearGradient19"
       gradientUnits="userSpaceOnUse"
       gradientTransform="scale(1.0370369)"
       x1="1.7859378"
       y1="6.6652098"
       x2="5.3578129"
       y2="0.47854009" /><linearGradient
       id="linearGradient32"><stop
         style="stop-color:#00c79d;stop-opacity:1;"
         offset="0"
         id="stop31" /><stop
         style="stop-color:#005eff;stop-opacity:1;"
         offset="1"
         id="stop32" /></linearGradient></defs><g
     id="layer1"><rect
       style="fill:url(#linearGradient19);fill-opacity:0.950108;stroke:none;stroke-width:0.439775;stroke-opacity:1"
       id="rect6-8"
       width="7.4083333"
       height="7.4083333"
       x="-5.0772094e-08"
       y="-5.0772094e-08"
       rx="0.99358821"
       ry="0.97970581" /><path
       fill="currentColor"
       d="m 3.5539325,4.7203379 c -0.00249,0.00498 -0.00498,0.00893 0,0 M 5.6138242,4.0009925 A 1.0844753,1.0844753 0 0 0 5.1342601,4.1126156 C 5.0854777,4.0142221 5.0350401,3.9282317 5.0267718,3.8637381 5.0168493,3.7884931 5.0060992,3.7438478 5.017684,3.6545496 5.0292524,3.5652509 5.0813489,3.4387459 5.0805247,3.4296507 5.0796933,3.4205629 5.0689563,3.3750783 4.9622882,3.3742542 4.8556263,3.3734227 4.7638477,3.3949268 4.753182,3.4230365 A 1.0170056,1.0170056 0 0 0 4.709357,3.5809612 C 4.690336,3.6777012 4.4961121,4.0233176 4.386143,4.2035678 4.349764,4.1332888 4.319168,4.0712739 4.312553,4.0216638 4.302633,3.9464188 4.29188,3.9017735 4.303463,3.8124753 4.315043,3.7231763 4.367128,3.5966716 4.366304,3.5875764 4.3654726,3.5784864 4.354736,3.5330044 4.2481499,3.5321804 4.1415704,3.531349 4.0497095,3.5528534 4.0389612,3.5809624 c -0.010745,0.02811 -0.022328,0.09426 -0.043823,0.1579255 -0.021497,0.063665 -0.2802142,0.639143 -0.3479314,0.7887995 -0.034724,0.076069 -0.064496,0.1372544 -0.085992,0.1785963 -0.00333,0.00665 -0.00582,0.010745 -0.00741,0.014058 0.00249,-0.00416 0.00416,-0.00826 0.00416,-0.00665 -0.018193,0.035555 -0.028941,0.055396 -0.028941,0.055396 v 8.315e-4 c -0.014058,0.026463 -0.029765,0.050438 -0.03721,0.050438 -0.00498,0 -0.015707,-0.069455 0.00249,-0.1645398 0.038859,-0.2000902 0.1306401,-0.5109797 0.1298131,-0.5217287 -8.314e-4,-0.00582 0.017362,-0.05953 -0.060363,-0.088471 -0.075245,-0.027286 -0.102527,0.018193 -0.1091424,0.018193 -0.00665,0 -0.011568,0.016538 -0.011568,0.016538 0,0 0.08351,-0.3505775 -0.1603238,-0.3505775 -0.1521371,0 -0.3638064,0.1670205 -0.4678224,0.3183307 -0.065317,0.035555 -0.2067059,0.1124494 -0.3555354,0.1943058 -0.057052,0.03142 -0.1157567,0.063665 -0.1711551,0.09426 -0.00416,-0.00416 -0.00741,-0.00826 -0.011568,-0.012403 C 1.9807216,4.0084092 1.4343498,3.7851642 1.4575015,3.3609987 1.4657663,3.2063809 1.5195111,2.8004049 2.5081594,2.3076122 3.3184566,1.904117 3.9662805,2.014913 4.0778204,2.2613093 4.2382265,2.6127138 3.7314597,3.2667395 2.8899912,3.3609983 2.5692621,3.3965534 2.4006709,3.272527 2.3585021,3.2262246 c -0.043823,-0.048782 -0.050438,-0.051262 -0.066975,-0.042169 -0.027286,0.014883 -0.00992,0.057875 0,0.08351 0.024807,0.06532 0.1281594,0.181077 0.3041927,0.2389553 0.1546178,0.050438 0.5306614,0.07855 0.9853374,-0.097567 C 4.0918748,3.2121681 4.4894994,2.663977 4.3729159,2.2050841 4.2541826,1.7387499 3.4809272,1.5857858 2.7497582,1.8454114 2.3140993,2.0000292 1.8429692,2.2431191 1.5040499,2.5597961 c -0.402586,0.377036 -0.4669956,0.7052896 -0.440537,0.8425442 0.094176,0.4870051 0.7654006,0.804509 1.0340388,1.0393299 -0.013227,0.00741 -0.02563,0.014058 -0.03721,0.020673 C 1.9256351,4.5293182 1.413907,4.79721 1.2858307,5.0799873 1.1411342,5.4007987 1.3098057,5.630659 1.4205221,5.6620788 1.7660558,5.7579918 2.1198579,5.5851828 2.3099469,5.3015793 2.5000367,5.0179751 2.4769674,4.6475536 2.3893229,4.4788792 c -8.314e-4,-0.00249 -0.00249,-0.00416 -0.00333,-0.00665 0.034724,-0.020673 0.070279,-0.041345 0.1058342,-0.06201 0.068548,-0.040514 0.1355175,-0.077722 0.1942228,-0.109969 -0.033076,0.089299 -0.057052,0.1967867 -0.069455,0.3522314 -0.014883,0.1819032 0.060362,0.417551 0.1579253,0.5101568 0.042992,0.040514 0.095003,0.041345 0.1272502,0.041345 0.1141025,0 0.1653667,-0.09426 0.2223358,-0.2067086 0.07028,-0.1372545 0.1322948,-0.2968336 0.1322948,-0.2968336 0,0 -0.077722,0.4316074 0.1347738,0.4316074 0.07764,0 0.1553624,-0.1000465 0.1901721,-0.1513101 v 8.314e-4 c 0,0 0.00166,-0.00333 0.00582,-0.00992 0.00826,-0.012403 0.012403,-0.019841 0.012403,-0.019841 v -0.00249 C 3.6309942,4.8955701 3.6996203,4.7723692 3.8028923,4.5689674 3.9368393,4.3060318 4.0649162,3.9777789 4.0649162,3.9777789 a 1.6619361,1.6619361 0 0 0 0.051262,0.2133231 c 0.023152,0.07855 0.071934,0.1645398 0.1107966,0.2480505 -0.03142,0.042992 -0.050438,0.0678 -0.050438,0.0678 a 0.0024805,0.0024805 0 0 0 8.315e-4,0.00166 c -0.024807,0.033076 -0.052917,0.068624 -0.081857,0.1033536 -0.1057519,0.1256786 -0.2315133,0.2695483 -0.2480497,0.3108894 -0.019841,0.048782 -0.014882,0.085164 0.023152,0.1132772 0.02811,0.021497 0.077722,0.024807 0.1297308,0.020673 0.095085,-0.00665 0.1620592,-0.029765 0.1943059,-0.044647 A 0.67965747,0.67965747 0 0 0 4.3615879,4.9245146 C 4.4649427,4.8484461 4.5277816,4.7393039 4.521994,4.595435 4.518667,4.5160588 4.4930531,4.4366827 4.4616316,4.3622679 c 0.00909,-0.013227 0.019017,-0.027286 0.02811,-0.041345 C 4.6533719,4.0819683 4.7798775,3.8196966 4.7798775,3.8196966 a 1.6619361,1.6619361 0 0 0 0.051262,0.2133229 c 0.019841,0.066975 0.058624,0.1405614 0.094178,0.2124963 -0.1537086,0.1248517 -0.2487951,0.2695483 -0.281868,0.364634 -0.061185,0.1761157 -0.013227,0.2554911 0.076896,0.2736813 0.040514,0.00826 0.098394,-0.010745 0.1413883,-0.028941 A 0.65733295,0.65733295 0 0 0 5.0402467,4.7631121 C 5.1435994,4.6870435 5.2435633,4.5803819 5.2369489,4.4356861 5.2344545,4.3703657 5.2162764,4.3050461 5.192301,4.2422072 5.3221133,4.1876349 5.4907045,4.1578696 5.7056824,4.1826766 6.1660636,4.2364173 6.2561879,4.5241589 6.2388245,4.6440494 6.2214627,4.7639405 6.1247217,4.8309139 6.092475,4.850758 6.06023,4.870599 6.050307,4.878044 6.052785,4.892926 6.056945,4.914423 6.071802,4.913599 6.099088,4.90864 6.137122,4.90199 6.3404401,4.811074 6.349536,4.5886561 6.362764,4.3075329 6.0924734,3.9982971 5.6136541,4.0007772 Z M 2.0652184,5.197421 C 1.9131636,5.3636154 1.6998405,5.4264543 1.6081441,5.3735374 1.5097507,5.3163197 1.5486134,5.071743 1.7362211,4.894635 1.8503239,4.7871465 1.997418,4.6879263 2.0949844,4.6267404 c 0.022321,-0.013227 0.054572,-0.033076 0.094259,-0.057052 0.00665,-0.00416 0.00992,-0.00582 0.00992,-0.00582 0.00741,-0.00498 0.015707,-0.00909 0.023975,-0.014058 0.068547,0.2513573 0.00249,0.4729486 -0.1579247,0.6474114 z M 3.176152,4.4416952 C 3.1232351,4.5715084 3.0116945,4.9022419 2.9438942,4.8848785 2.8860189,4.8699959 2.8504623,4.6178108 2.9323147,4.3697611 2.9736595,4.2449086 3.0613009,4.0960791 3.1133917,4.0382007 3.1968192,3.944768 3.2885981,3.915002 3.3100951,3.9522094 3.3390365,4.0009918 3.209222,4.3606652 3.1761483,4.4416952 M 4.093934,4.8799171 c -0.022328,0.01158 -0.042992,0.019017 -0.052917,0.013227 -0.00741,-0.00416 0.00909,-0.019841 0.00909,-0.019841 0,0 0.1149302,-0.1231988 0.1604061,-0.1794233 0.026463,-0.033076 0.057052,-0.071934 0.090042,-0.1149302 0,0.00416 8.314e-4,0.00826 8.314e-4,0.013227 -0.00106,0.1480027 -0.1432101,0.2480499 -0.2077036,0.287738 z M 4.8015379,4.7186848 c -0.016538,-0.01158 -0.014058,-0.050438 0.041345,-0.1711551 0.021497,-0.047127 0.071027,-0.1265054 0.1570986,-0.2025741 a 0.29931387,0.29931387 0 0 1 0.015714,0.089299 C 5.0148641,4.620292 4.8817478,4.6897461 4.8016279,4.7186853 Z"
       id="path1"
       style="fill:#f9f9f9;stroke-width:0.0082683" /></g></svg>
