<?xml version="1.0" encoding="UTF-8" standalone="no"?>
<!-- Created with Inkscape (http://www.inkscape.org/) -->

<svg
   width="28"
   height="28"
   viewBox="0 0 7.4083332 7.4083332"
   version="1.1"
   id="svg1"
   xml:space="preserve"
   xmlns:xlink="http://www.w3.org/1999/xlink"
   xmlns="http://www.w3.org/2000/svg"
   xmlns:svg="http://www.w3.org/2000/svg"><defs
     id="defs1"><linearGradient
       xlink:href="#linearGradient32"
       id="linearGradient19"
       gradientUnits="userSpaceOnUse"
       gradientTransform="scale(1.0370369)"
       x1="1.7859378"
       y1="6.6652098"
       x2="5.3578129"
       y2="0.47854009" /><linearGradient
       id="linearGradient32"><stop
         style="stop-color:#00c79d;stop-opacity:1;"
         offset="0"
         id="stop31" /><stop
         style="stop-color:#005eff;stop-opacity:1;"
         offset="1"
         id="stop32" /></linearGradient></defs><g
     id="layer1"><rect
       style="fill:url(#linearGradient19);fill-opacity:0.950108;stroke:none;stroke-width:0.439775;stroke-opacity:1"
       id="rect6-8"
       width="7.4083333"
       height="7.4083333"
       x="-5.0772094e-08"
       y="-5.0772094e-08"
       rx="0.99358821"
       ry="0.97970581" /><path
       fill="currentColor"
       d="M 3.7041664,2.1166667 C 2.997729,2.1166667 2.5585206,2.4685625 2.3812498,3.175 2.6458331,2.8231042 2.9553956,2.6908125 3.3072915,2.778125 c 0.2010833,0.050271 0.3466041,0.1957917 0.5053541,0.3571875 0.2592916,0.2645833 0.5529791,0.568854 1.2144374,0.568854 0.7064375,0 1.1456458,-0.3518957 1.3229166,-1.0583332 C 6.0854163,2.9977292 5.7758538,3.1300208 5.423958,3.0427083 5.2228746,2.9924373 5.0799997,2.8469167 4.9186038,2.6855208 4.6593122,2.4209375 4.3656247,2.1166667 3.7041664,2.1166667 M 2.3812498,3.7041665 c -0.7064372,0 -1.1456462,0.3518959 -1.3229162,1.0583334 0.264583,-0.3518959 0.5741449,-0.4841875 0.9260412,-0.396875 0.2010833,0.050271 0.3439583,0.1957916 0.5053542,0.3571875 0.2592916,0.2645833 0.5529791,0.5688541 1.2144374,0.5688541 0.7064374,0 1.1456458,-0.3518958 1.3229166,-1.0583333 C 4.7624997,4.585229 4.4529372,4.7175207 4.1010413,4.6302082 3.8999581,4.5799374 3.7570831,4.4344165 3.5956873,4.2730207 3.3363956,4.0084374 3.0427081,3.7041665 2.3812498,3.7041665"
       id="path1"
       style="fill:#f9f9f9;stroke-width:0.264583" /></g></svg>
