<?xml version="1.0" encoding="UTF-8" standalone="no"?>
<!-- Created with Inkscape (http://www.inkscape.org/) -->

<svg
   width="28"
   height="28"
   viewBox="0 0 7.4083332 7.4083332"
   version="1.1"
   id="svg1"
   xml:space="preserve"
   xmlns:xlink="http://www.w3.org/1999/xlink"
   xmlns="http://www.w3.org/2000/svg"
   xmlns:svg="http://www.w3.org/2000/svg"><defs
     id="defs1"><linearGradient
       xlink:href="#linearGradient32"
       id="linearGradient19"
       gradientUnits="userSpaceOnUse"
       gradientTransform="scale(1.0370369)"
       x1="1.7859378"
       y1="6.6652098"
       x2="5.3578129"
       y2="0.47854009" /><linearGradient
       id="linearGradient32"><stop
         style="stop-color:#00c79d;stop-opacity:1;"
         offset="0"
         id="stop31" /><stop
         style="stop-color:#005eff;stop-opacity:1;"
         offset="1"
         id="stop32" /></linearGradient></defs><g
     id="layer1"><rect
       style="fill:url(#linearGradient19);fill-opacity:0.950108;stroke:none;stroke-width:0.439775;stroke-opacity:1"
       id="rect6-8"
       width="7.4083333"
       height="7.4083333"
       x="-5.0772094e-08"
       y="-5.0772094e-08"
       rx="0.99358821"
       ry="0.97970581" /><path
       fill="#007acc"
       d="M 5.4845717,1.9928168 A 0.93356024,0.93356024 0 0 1 5.9562318,2.2646101 1.2730368,1.2730368 0 0 1 6.137003,2.5071237 c 0.00233,0.00955 -0.3254731,0.2297831 -0.524279,0.3526312 -0.00722,0.00488 -0.035858,-0.026309 -0.06832,-0.07426 A 0.42646731,0.42646731 0 0 0 5.1900758,2.5733216 C 4.9615657,2.5576209 4.8143178,2.6772862 4.8153787,2.8773652 a 0.27582463,0.27582463 0 0 0 0.032462,0.1413071 c 0.050285,0.1039646 0.143641,0.1663434 0.4368638,0.2934349 0.5397676,0.2323293 0.7714603,0.385518 0.9144647,0.6032073 A 1.0948116,1.0948116 0 0 1 6.2874335,4.8346592 1.0099424,1.0099424 0 0 1 5.45317,5.4319256 2.3339007,2.3339007 0 0 1 4.8786062,5.4259834 1.3854883,1.3854883 0 0 1 4.1113898,5.0262499 1.3366886,1.3366886 0 0 1 3.9149171,4.735361 0.63651838,0.63651838 0 0 1 3.9842986,4.6912294 c 0.03352,-0.019096 0.1604026,-0.092083 0.2800681,-0.1614636 l 0.2172647,-0.1273037 0.045404,0.066198 a 1.0184294,1.0184294 0 0 0 0.2864334,0.2741273 0.70017021,0.70017021 0 0 0 0.7336936,-0.03713 0.32780696,0.32780696 0 0 0 0.042435,-0.4188291 C 5.5310378,4.2030198 5.4113723,4.1325784 5.0712593,3.9851183 A 1.8671206,1.8671206 0 0 1 4.3606928,3.5491033 0.99721208,0.99721208 0 0 1 4.1536124,3.1720722 1.5064268,1.5064268 0 0 1 4.140453,2.6908643 0.91870817,0.91870817 0 0 1 4.913611,1.9749934 1.9095551,1.9095551 0 0 1 5.484568,1.9928164 m -1.7701577,0.3146522 0.00233,0.3084992 H 2.7343765 V 5.4056152 H 2.041632 V 2.6166039 H 1.0592718 V 2.3136211 a 2.9704191,2.9704191 0 0 1 0.00848,-0.3110453 c 0.00361,-0.00488 0.6008734,-0.00722 1.3250192,-0.00594 l 1.3178052,0.00361 z"
       id="path1"
       style="fill:#f9f9f9;stroke-width:0.212173" /></g></svg>
